<svg width="23" height="23" viewBox="0 0 23 23" fill="none" xmlns="http://www.w3.org/2000/svg">
<path d="M14.1452 10.7238C14.0117 10.7232 13.8796 10.7505 13.7574 10.804C13.6351 10.8575 13.5253 10.9359 13.4351 11.0342C13.3449 11.1326 13.2762 11.2486 13.2335 11.3751C13.1907 11.5015 13.1748 11.6354 13.1868 11.7683H15.161C15.1738 11.6304 15.1565 11.4914 15.1103 11.3609C15.0642 11.2303 14.9903 11.1113 14.8938 11.012C14.7972 10.9127 14.6803 10.8355 14.5511 10.7858C14.4219 10.736 14.2834 10.7149 14.1452 10.7238ZM9.09477 11.7875H7.91602V13.6467H8.87435C9.83268 13.6467 10.2543 13.3304 10.2543 12.6883C10.2543 12.0463 9.81352 11.7875 9.09477 11.7875ZM9.92852 10.0817C9.92852 9.57376 9.5931 9.26709 9.0181 9.26709H7.91602V10.9346H8.7306C9.58352 10.9346 9.92852 10.6279 9.92852 10.0817Z" fill="white"/>
<path d="M11.5001 1.91663C9.60468 1.91663 7.75184 2.47868 6.17587 3.53171C4.5999 4.58474 3.37158 6.08145 2.64624 7.83258C1.9209 9.5837 1.73112 11.5106 2.10089 13.3696C2.47067 15.2286 3.38339 16.9361 4.72365 18.2764C6.0639 19.6167 7.77149 20.5294 9.63047 20.8992C11.4895 21.2689 13.4163 21.0791 15.1675 20.3538C16.9186 19.6285 18.4153 18.4001 19.4683 16.8242C20.5214 15.2482 21.0834 13.3954 21.0834 11.5C21.0834 10.2415 20.8355 8.99528 20.3539 7.83258C19.8723 6.66987 19.1664 5.61341 18.2765 4.72352C17.3866 3.83362 16.3302 3.12772 15.1675 2.64611C14.0048 2.16451 12.7586 1.91663 11.5001 1.91663ZM9.29592 14.5666H6.70842V8.33746H9.29592C10.4172 8.33746 11.1551 8.92204 11.1551 9.87079C11.1683 10.1895 11.0675 10.5025 10.8708 10.7537C10.6741 11.0048 10.3944 11.1777 10.0818 11.2412C10.2799 11.2458 10.475 11.2908 10.6551 11.3734C10.8353 11.456 10.9966 11.5744 11.1294 11.7216C11.2622 11.8687 11.3635 12.0414 11.4273 12.229C11.491 12.4166 11.5158 12.6153 11.5001 12.8129C11.5001 13.9245 10.5418 14.5666 9.29592 14.5666ZM12.698 8.81663H15.573V9.29579H12.698V8.81663ZM16.2918 12.5062H13.1293V12.6404C13.1128 12.786 13.1277 12.9335 13.173 13.0728C13.2183 13.2122 13.293 13.3402 13.392 13.4483C13.491 13.5564 13.612 13.642 13.7469 13.6993C13.8817 13.7567 14.0273 13.7845 14.1738 13.7808C14.3795 13.8128 14.5899 13.7692 14.766 13.6583C14.9421 13.5473 15.0722 13.3764 15.1322 13.177H16.2918C16.1885 13.6371 15.9193 14.0429 15.5357 14.3169C15.152 14.591 14.6808 14.714 14.2122 14.6625C13.9126 14.6927 13.6101 14.657 13.3259 14.5577C13.0417 14.4585 12.7827 14.2982 12.5671 14.088C12.3515 13.8779 12.1846 13.6231 12.078 13.3416C11.9715 13.06 11.928 12.7585 11.9505 12.4583V12.0366C11.9301 11.7457 11.9729 11.4539 12.076 11.1811C12.179 10.9083 12.3398 10.661 12.5473 10.4562C12.7549 10.2514 13.0043 10.0939 13.2784 9.9945C13.5525 9.8951 13.8449 9.85617 14.1355 9.88038C14.4251 9.86181 14.7154 9.90551 14.9867 10.0085C15.258 10.1116 15.5041 10.2715 15.7084 10.4776C15.9127 10.6838 16.0705 10.9313 16.1711 11.2035C16.2718 11.4757 16.3129 11.7663 16.2918 12.0558V12.5062Z" fill="white"/>
</svg>
