<svg width="23" height="23" viewBox="0 0 23 23" fill="none" xmlns="http://www.w3.org/2000/svg">
<path opacity="0.5" d="M11.4712 20.0962C16.2346 20.0962 20.0962 16.2346 20.0962 11.4712C20.0962 6.70774 16.2346 2.84619 11.4712 2.84619C6.70774 2.84619 2.84619 6.70774 2.84619 11.4712C2.84619 16.2346 6.70774 20.0962 11.4712 20.0962Z" fill="white"/>
<path d="M1.91677 11.5C1.904 9.81002 2.34766 8.14794 3.20094 6.68915C4.03687 5.23995 5.24008 4.03675 6.68927 3.20082C8.14806 2.34754 9.81014 1.90387 11.5001 1.91665C13.1901 1.90387 14.8522 2.34754 16.3109 3.20082C17.7602 4.03671 18.9634 5.23993 19.7993 6.68915C20.6526 8.14794 21.0962 9.81002 21.0834 11.5C21.0962 13.19 20.6526 14.852 19.7993 16.3108C18.9634 17.76 17.7602 18.9633 16.3109 19.7992C14.8522 20.6524 13.1901 21.0961 11.5001 21.0833C9.81014 21.0961 8.14806 20.6524 6.68927 19.7992C5.24008 18.9632 4.03687 17.76 3.20094 16.3108C2.34766 14.852 1.904 13.19 1.91677 11.5ZM3.50761 11.5C3.4902 13.4478 4.20898 15.3303 5.52011 16.7708C6.24365 15.4387 7.23552 14.2696 8.43344 13.34C9.55269 12.3623 10.8851 11.66 12.3243 11.2892C12.1326 10.8416 11.9476 10.4391 11.7684 10.0817C9.46088 10.8009 7.05541 11.1566 4.63844 11.1358C4.14011 11.1358 3.76923 11.1291 3.52677 11.1167C3.52677 11.1674 3.5239 11.2317 3.51719 11.3083C3.51048 11.385 3.50761 11.4492 3.50761 11.5ZM3.75677 9.52582C4.03756 9.55169 4.45348 9.56415 5.00261 9.56415C7.05916 9.57521 9.10621 9.28461 11.0784 8.70165C10.2165 7.12276 9.13926 5.67136 7.87761 4.38915C6.86742 4.9009 5.9811 5.62696 5.28052 6.51665C4.56915 7.40301 4.05022 8.42783 3.75677 9.52582ZM6.61261 17.8058C7.68495 18.653 8.96032 19.205 10.312 19.4067C11.6637 19.6084 13.0446 19.453 14.3176 18.9558C14.0667 16.7903 13.565 14.6613 12.8226 12.6117C11.4939 12.9486 10.2713 13.6143 9.26719 14.5475C8.17883 15.4506 7.27712 16.5574 6.61261 17.8058ZM9.54511 3.77582C10.7735 5.08225 11.8239 6.54517 12.6693 8.12665C14.1949 7.55108 15.5476 6.59427 16.5984 5.34748C15.175 4.14201 13.3653 3.4889 11.5001 3.50748C10.8393 3.50873 10.1818 3.59899 9.54511 3.77582ZM13.3593 9.48748C13.5509 9.89669 13.7685 10.4142 14.0109 11.04C14.9568 10.9509 15.9851 10.9058 17.0968 10.9058C17.8893 10.9058 18.6751 10.925 19.4543 10.9633C19.3624 9.25112 18.7013 7.61866 17.5759 6.32498C16.4974 7.75641 15.0354 8.85293 13.3593 9.48748ZM14.4901 12.3817C15.1418 14.2696 15.5845 16.2246 15.8126 18.2083C16.8132 17.5656 17.6579 16.7079 18.2851 15.6975C18.9172 14.6948 19.3107 13.5604 19.4351 12.3817C18.5026 12.3174 17.6526 12.2858 16.8859 12.2858C16.1835 12.2858 15.3842 12.3174 14.4901 12.3817Z" fill="white"/>
</svg>
