<svg width="23" height="23" viewBox="0 0 23 23" fill="none" xmlns="http://www.w3.org/2000/svg">
<path fill-rule="evenodd" clip-rule="evenodd" d="M7.27339 2.9723C7.33284 2.86969 7.41825 2.78454 7.52104 2.7254C7.62382 2.66626 7.74037 2.63521 7.85895 2.63538H13.9064C14.0249 2.63537 14.1412 2.66649 14.2438 2.72562C14.3465 2.78476 14.4317 2.86982 14.4911 2.9723L20.4755 13.316C20.5369 13.4216 20.5684 13.5419 20.5669 13.6641C20.5653 13.7862 20.5306 13.9057 20.4665 14.0097L17.3946 18.9806C17.3341 19.0786 17.2495 19.1596 17.1489 19.2157C17.0483 19.2718 16.935 19.3013 16.8198 19.3013H4.94556C4.83037 19.3013 4.71709 19.2718 4.6165 19.2157C4.5159 19.1596 4.43133 19.0786 4.37081 18.9806L1.29887 14.0097C1.2348 13.9057 1.20013 13.7862 1.19854 13.6641C1.19696 13.5419 1.22852 13.4216 1.28986 13.316L7.27339 2.9723ZM7.85985 4.65691L2.66098 13.6439L4.92935 17.3167L7.27429 13.316L7.27519 13.3133L10.085 8.48378L7.85985 4.65871V4.65691ZM10.8669 9.82696L9.03278 12.9791H12.6993L10.8669 9.82696ZM14.2632 12.9791H18.7198L13.5164 3.98667H9.03278L14.2632 12.9791ZM18.6792 14.3304H8.24542L6.12389 17.95H16.4433L18.6792 14.3304Z" fill="white"/>
</svg>
