<svg width="23" height="23" viewBox="0 0 23 23" fill="none" xmlns="http://www.w3.org/2000/svg">
<path d="M11.5011 1.91663C6.20627 1.91663 1.91773 6.20517 1.91773 11.5C1.91657 13.5116 2.54888 15.4726 3.72496 17.1047C4.90104 18.7368 6.56117 19.9572 8.46985 20.5926C8.94902 20.676 9.12919 20.3885 9.12919 20.1365C9.12919 19.9093 9.11673 19.1551 9.11673 18.352C6.70939 18.7958 6.08648 17.7655 5.89481 17.226C5.78652 16.95 5.31981 16.1 4.91252 15.8719C4.5771 15.6927 4.09793 15.249 4.90006 15.2375C5.65523 15.225 6.19381 15.9322 6.37398 16.2197C7.23648 17.6687 8.6136 17.2615 9.16464 17.0104C9.24898 16.3875 9.50006 15.9687 9.77606 15.7291C7.64377 15.4895 5.41564 14.6625 5.41564 10.9968C5.41564 9.95417 5.78652 9.09263 6.39793 8.42083C6.3021 8.18125 5.96668 7.19896 6.49377 5.88125C6.49377 5.88125 7.29589 5.63017 9.12919 6.8645C9.90933 6.64798 10.7154 6.539 11.525 6.54058C12.3396 6.54058 13.1542 6.64792 13.9209 6.86354C15.7541 5.61771 16.5563 5.88221 16.5563 5.88221C17.0834 7.19992 16.7479 8.18221 16.6521 8.42179C17.2626 9.09263 17.6344 9.94267 17.6344 10.9968C17.6344 14.6749 15.3948 15.4895 13.2615 15.7291C13.6094 16.0281 13.9094 16.6031 13.9094 17.502C13.9094 18.7833 13.8969 19.8135 13.8969 20.1374C13.8969 20.3885 14.0771 20.6875 14.5562 20.5917C16.4584 19.9492 18.1112 18.7265 19.2821 17.0956C20.453 15.4647 21.083 13.5077 21.0834 11.5C21.0834 6.20517 16.7949 1.91663 11.5001 1.91663H11.5011Z" fill="white"/>
</svg>
