<svg width="23" height="23" viewBox="0 0 23 23" fill="none" xmlns="http://www.w3.org/2000/svg">
<path d="M20.6774 10.5207L18.8895 3.68363C18.8326 3.46158 18.7061 3.26359 18.5285 3.11868C18.3509 2.97378 18.1315 2.88958 17.9025 2.87842C17.6736 2.86727 17.4471 2.92976 17.2562 3.05671C17.0654 3.18367 16.9202 3.36843 16.842 3.58391L15.2536 7.90629H7.74621L6.15777 3.58211C6.0794 3.36667 5.93407 3.182 5.74309 3.05518C5.5521 2.92836 5.32552 2.86606 5.09654 2.87742C4.86757 2.88877 4.64826 2.97318 4.47076 3.11827C4.29326 3.26336 4.16691 3.46149 4.11023 3.68363L2.32234 10.5207C2.05828 11.5269 2.10586 12.5896 2.45879 13.5682C2.81173 14.5468 3.45338 15.3952 4.2989 16.0012L10.8818 20.6515C11.0623 20.779 11.2779 20.8475 11.499 20.8475C11.72 20.8475 11.9356 20.779 12.1162 20.6515L18.6991 16.0012C19.5449 15.3954 20.1869 14.5471 20.5402 13.5685C20.8934 12.5899 20.9413 11.5271 20.6774 10.5207ZM5.21082 5.16605L6.57015 8.87301C6.62091 9.0111 6.71283 9.1303 6.8335 9.21449C6.95416 9.29868 7.09775 9.34381 7.24488 9.34379H15.7549C15.902 9.34381 16.0456 9.29868 16.1663 9.21449C16.2869 9.1303 16.3788 9.0111 16.4296 8.87301L17.7889 5.16605L18.9632 9.65824L11.4999 14.933L4.03387 9.65824L5.21082 5.16605ZM3.65472 11.1505L10.2537 15.8125L8.39219 17.1287L5.12906 14.8243C4.55963 14.4153 4.11852 13.8525 3.85741 13.2019C3.59629 12.5513 3.52599 11.8397 3.65472 11.1505ZM11.4999 19.3263L9.63742 18.0101L11.4999 16.693L13.3623 18.0083L11.4999 19.3263ZM17.8707 14.8243L14.6076 17.1296L12.746 15.8125L19.345 11.1496C19.474 11.8389 19.4037 12.5507 19.1426 13.2015C18.8815 13.8523 18.4403 14.4152 17.8707 14.8243Z" fill="white"/>
</svg>
