<svg width="13" height="13" viewBox="0 0 13 13" fill="none" xmlns="http://www.w3.org/2000/svg">
<path d="M8.50291 6.44434L9.53292 7.47362L11.5915 5.41505C12.1376 4.86899 12.4443 4.12836 12.4443 3.35611C12.4443 2.58386 12.1376 1.84324 11.5915 1.29718C11.3211 1.02679 11.0001 0.812312 10.6468 0.665982C10.2936 0.519651 9.91494 0.444336 9.53256 0.444336C8.76031 0.444336 8.01969 0.751111 7.47362 1.29718L5.41505 3.35575L6.44434 4.38576L8.50291 2.32646C8.77599 2.05338 9.14637 1.89997 9.53256 1.89997C9.91875 1.89997 10.2891 2.05338 10.5622 2.32646C10.8353 2.59954 10.9887 2.96992 10.9887 3.35611C10.9887 3.74231 10.8353 4.11268 10.5622 4.38576L8.50291 6.44434ZM6.44434 8.50364L7.47362 9.53292L5.41505 11.5915C4.86899 12.1376 4.12836 12.4443 3.35611 12.4443C2.58386 12.4443 1.84324 12.1376 1.29718 11.5915C0.751111 11.0454 0.444336 10.3048 0.444336 9.53256C0.444336 8.76031 0.751111 8.01969 1.29718 7.47362L3.35575 5.41505L4.38576 6.44434L2.32646 8.50364C2.05348 8.77672 1.90016 9.14705 1.90022 9.53318C1.90029 9.91931 2.05375 10.2896 2.32683 10.5626C2.59991 10.8356 2.97024 10.9889 3.35637 10.9888C3.7425 10.9887 4.11278 10.8353 4.38576 10.5622L6.44434 8.50291V8.50364Z" fill="white"/>
<path d="M8.50367 5.41509C8.64026 5.2785 8.717 5.09325 8.717 4.90008C8.717 4.70692 8.64026 4.52166 8.50367 4.38508C8.36709 4.24849 8.18183 4.17175 7.98867 4.17175C7.7955 4.17175 7.61025 4.24849 7.47366 4.38508L4.3858 7.47366C4.31628 7.54081 4.26082 7.62113 4.22267 7.70994C4.18452 7.79875 4.16444 7.89427 4.1636 7.99093C4.16276 8.08758 4.18118 8.18343 4.21778 8.27289C4.25438 8.36235 4.30843 8.44362 4.37678 8.51197C4.44513 8.58032 4.5264 8.63437 4.61586 8.67097C4.70532 8.70757 4.80117 8.72599 4.89782 8.72515C4.99448 8.72431 5.09 8.70423 5.17881 8.66608C5.26762 8.62793 5.34794 8.57247 5.41509 8.50295L8.50295 5.41509H8.50367Z" fill="white"/>
</svg>
