<svg width="23" height="23" viewBox="0 0 23 23" fill="none" xmlns="http://www.w3.org/2000/svg">
<path d="M11.5137 2.42102C6.49214 2.42102 2.42114 6.48203 2.42114 11.4909C2.42114 15.3331 4.81617 18.6151 8.19898 19.9343C8.11909 19.2171 8.04827 18.1167 8.22985 17.3332C8.396 16.625 9.29663 12.8264 9.29663 12.8264C9.29663 12.8264 9.02426 12.2817 9.02426 11.4791C9.02426 10.2207 9.75784 9.27653 10.6685 9.27653C11.4447 9.27653 11.8197 9.85759 11.8197 10.553C11.8197 11.332 11.3249 12.4959 11.067 13.5736C10.8509 14.476 11.5228 15.2114 12.4134 15.2114C14.0277 15.2114 15.2715 13.5137 15.2715 11.0605C15.2715 8.89613 13.7072 7.37631 11.4729 7.37631C8.88717 7.37631 7.37098 9.31467 7.37098 11.3102C7.37098 12.091 7.66968 12.9317 8.04464 13.3838C8.12 13.4746 8.12998 13.5545 8.1091 13.6453C8.04101 13.9286 7.88758 14.5523 7.8558 14.6758C7.81585 14.8465 7.72597 14.881 7.55166 14.8011C6.4177 14.279 5.70681 12.6239 5.70681 11.2857C5.70681 8.42947 7.79134 5.7993 11.7134 5.7993C14.8675 5.7993 17.3197 8.04361 17.3197 11.0369C17.3197 14.1655 15.3423 16.6822 12.5923 16.6822C11.6717 16.6822 10.8074 16.2065 10.5005 15.6391L9.93306 17.7944C9.72879 18.5843 9.17043 19.5739 8.79638 20.174C9.66874 20.4426 10.5764 20.5791 11.4892 20.5789C16.5008 20.5789 20.579 16.5206 20.579 11.509C20.579 6.50019 16.4999 2.4419 11.4892 2.4419L11.5137 2.42102Z" fill="white"/>
</svg>
