<svg width="22" height="22" viewBox="0 0 22 22" fill="none" xmlns="http://www.w3.org/2000/svg">
<path d="M9.57613 7.66102C9.04721 7.13211 8.18974 7.13204 7.6609 7.66087C7.13207 8.18971 7.13214 9.04718 7.66106 9.5761L17.2367 19.1518C17.7656 19.6807 18.6231 19.6807 19.1519 19.1519C19.6808 18.6231 19.6807 17.7656 19.1518 17.2367L9.57613 7.66102Z" stroke="white" stroke-miterlimit="10"/>
<path d="M7.66465 7.66477C7.53838 7.79102 7.43821 7.9409 7.36987 8.10586C7.30153 8.27083 7.26636 8.44764 7.26636 8.62619C7.26636 8.80475 7.30153 8.98156 7.36987 9.14652C7.43821 9.31149 7.53838 9.46137 7.66465 9.58762L9.59265 11.5156L11.5155 9.59278L9.5875 7.66477C9.46125 7.5385 9.31137 7.43833 9.1464 7.36999C8.98144 7.30165 8.80463 7.26648 8.62607 7.26648C8.44751 7.26648 8.27071 7.30165 8.10574 7.36999C7.94078 7.43833 7.79089 7.5385 7.66465 7.66477Z" fill="white"/>
<path d="M2.0625 8.25H4.125ZM3.87492 3.87492L5.33328 5.33328ZM8.25 2.0625V4.125ZM12.6251 3.87492L11.1667 5.33328ZM5.33328 11.1667L3.87492 12.6251Z" fill="white"/>
<path d="M2.0625 8.25H4.125M3.87492 3.87492L5.33328 5.33328M8.25 2.0625V4.125M12.6251 3.87492L11.1667 5.33328M5.33328 11.1667L3.87492 12.6251" stroke="white" stroke-miterlimit="10" stroke-linecap="round"/>
</svg>
