<svg width="23" height="23" viewBox="0 0 23 23" fill="none" xmlns="http://www.w3.org/2000/svg">
<path d="M16.5357 5.71974C15.8461 4.93251 15.4661 3.92153 15.4664 2.875H12.3493V15.3838C12.3253 16.0607 12.0395 16.7019 11.5521 17.1723C11.0648 17.6427 10.4139 17.9056 9.73657 17.9057C8.30412 17.9057 7.11377 16.7355 7.11377 15.2829C7.11377 13.5478 8.78833 12.2465 10.5133 12.7811V9.59342C7.03306 9.12939 3.98657 11.8329 3.98657 15.2829C3.98657 18.6421 6.77078 21.0329 9.72649 21.0329C12.894 21.0329 15.4664 18.4605 15.4664 15.2829V8.93772C16.7304 9.84546 18.2479 10.3325 19.8041 10.3298V7.21272C19.8041 7.21272 17.9076 7.30351 16.5357 5.71974Z" fill="white"/>
</svg>
