<svg width="23" height="23" viewBox="0 0 23 23" fill="none" xmlns="http://www.w3.org/2000/svg">
<path d="M20.3766 10.0516C18.4049 14.2632 13.6471 19.9943 10.6402 19.9943C7.67686 19.9943 7.24979 13.6734 5.6306 9.46861C4.8336 7.39814 4.31938 7.8746 2.82609 8.91952L1.91675 7.74387C4.09374 5.83029 6.27363 3.60681 7.611 3.48383C9.12076 3.3405 10.0485 4.37089 10.3932 6.57596C10.8532 9.47538 11.4943 13.9756 12.6119 13.9756C13.4834 13.9756 15.6304 10.406 15.7418 9.12966C15.9384 7.26063 14.3657 7.20349 13.0031 7.78648C15.1607 0.721918 24.134 2.02443 20.3766 10.0516Z" fill="white"/>
</svg>
