<svg width="22" height="22" viewBox="0 0 22 22" fill="none" xmlns="http://www.w3.org/2000/svg">
<path d="M11 0.730469C16.6718 0.730469 21.2609 5.31953 21.2609 10.9828C21.2609 16.6461 16.6718 21.2437 11 21.2437C5.32808 21.2437 0.739014 16.6547 0.739014 10.9914C0.739014 5.32812 5.32808 0.730469 11 0.730469Z" fill="#E74D89"/>
<path d="M11 21.9742C4.93281 21.9742 0 17.05 0 10.9914C0 4.92422 4.93281 0 11 0C17.0672 0 22 4.92422 22 10.9828C22 17.0414 17.0672 21.9742 11 21.9742ZM20.2727 12.4867C19.9547 12.3836 17.368 11.6188 14.4203 12.0828C15.6492 15.4516 16.1477 18.2016 16.2422 18.7687C18.3563 17.3508 19.8602 15.0992 20.2727 12.4867ZM14.6695 19.6367C14.532 18.8117 13.982 15.9414 12.6672 12.5211C12.65 12.5297 12.6242 12.5383 12.607 12.5383C7.30469 14.3859 5.40547 18.0555 5.23359 18.3992C6.82344 19.6367 8.82578 20.3758 11 20.3758C12.2977 20.3844 13.5437 20.118 14.6695 19.6367ZM4.02187 17.2734C4.23672 16.9125 6.81484 12.65 11.6617 11.0773C11.782 11.0344 11.9109 11 12.0312 10.9656C11.7992 10.4328 11.5414 9.9 11.2664 9.37578C6.57422 10.7766 2.01953 10.7164 1.60703 10.7078C1.60703 10.8023 1.59844 10.8969 1.59844 10.9914C1.60703 13.4062 2.51797 15.6062 4.02187 17.2734ZM1.80469 9.075C2.22578 9.08359 6.09297 9.10078 10.493 7.93203C8.9375 5.16484 7.25312 2.84453 7.0125 2.50938C4.37422 3.74688 2.41484 6.17031 1.80469 9.075ZM8.8 1.87344C9.05781 2.21719 10.768 4.5375 12.3062 7.36484C15.6492 6.11016 17.0586 4.21953 17.2305 3.97891C15.5719 2.50937 13.3891 1.61562 11 1.61562C10.2437 1.61562 9.50469 1.71016 8.8 1.87344ZM18.2703 5.06172C18.0727 5.32812 16.5 7.34766 13.0281 8.76562C13.243 9.2125 13.4578 9.66797 13.6555 10.1234C13.7242 10.2867 13.793 10.45 13.8617 10.6047C16.9898 10.2094 20.0922 10.8453 20.4016 10.9055C20.3758 8.69687 19.5852 6.66016 18.2703 5.06172Z" fill="#B2215A"/>
</svg>
