<svg width="34" height="34" viewBox="0 0 34 34" fill="none" xmlns="http://www.w3.org/2000/svg">
<g clip-path="url(#clip0_49_39)">
<path d="M33.842 17.0264C33.842 7.73932 26.3133 0.210571 17.0262 0.210571C7.73919 0.210571 0.210449 7.73919 0.210449 17.0264C0.210449 25.4195 6.35977 32.3764 14.3988 33.6379V21.8872H10.1291V17.0264H14.3988V13.3216C14.3988 9.10718 16.9093 6.77924 20.7503 6.77924C22.5902 6.77924 24.5145 7.10767 24.5145 7.10767V11.2459H22.3942C20.3051 11.2459 19.6537 12.5422 19.6537 13.8721V17.0264H24.3175L23.5719 21.8872H19.6537V33.6379C27.6927 32.3764 33.842 25.4197 33.842 17.0264Z" fill="#1877F2"/>
<path d="M23.5719 21.8872L24.3175 17.0264H19.6537V13.8721C19.6537 12.5421 20.3052 11.246 22.3942 11.246H24.5145V7.10773C24.5145 7.10773 22.5902 6.7793 20.7503 6.7793C16.9093 6.7793 14.3988 9.10723 14.3988 13.3217V17.0264H10.1292V21.8872H14.3988V33.6379C15.268 33.7741 16.1465 33.8424 17.0263 33.8422C17.9061 33.8425 18.7845 33.7742 19.6537 33.6379V21.8872H23.5719Z" fill="white"/>
</g>
<defs>
<clipPath id="clip0_49_39">
<rect width="33.6316" height="33.6316" fill="white" transform="translate(0.210449 0.210571)"/>
</clipPath>
</defs>
</svg>
