<svg width="32" height="32" viewBox="0 0 32 32" fill="none" xmlns="http://www.w3.org/2000/svg">
<g clip-path="url(#clip0_49_38)">
<path d="M23.952 0.611816H7.57417C3.58361 0.611816 0.348633 3.8468 0.348633 7.83735V24.2152C0.348633 28.2058 3.58361 31.4408 7.57417 31.4408H23.952C27.9426 31.4408 31.1776 28.2058 31.1776 24.2152V7.83735C31.1776 3.8468 27.9426 0.611816 23.952 0.611816Z" fill="url(#paint0_radial_49_38)"/>
<path d="M23.952 0.611816H7.57417C3.58361 0.611816 0.348633 3.8468 0.348633 7.83735V24.2152C0.348633 28.2058 3.58361 31.4408 7.57417 31.4408H23.952C27.9426 31.4408 31.1776 28.2058 31.1776 24.2152V7.83735C31.1776 3.8468 27.9426 0.611816 23.952 0.611816Z" fill="url(#paint1_radial_49_38)"/>
<path d="M15.7641 3.98376C12.4936 3.98376 12.0831 3.9981 10.7986 4.0565C9.51654 4.11527 8.64141 4.31819 7.87574 4.616C7.08358 4.92357 6.41173 5.33506 5.7424 6.00463C5.07248 6.67407 4.66098 7.34593 4.35245 8.13772C4.0538 8.90363 3.85064 9.77912 3.79296 11.0606C3.73551 12.3452 3.72046 12.7558 3.72046 16.0264C3.72046 19.2971 3.73491 19.7063 3.7932 20.9907C3.8522 22.2728 4.05512 23.1479 4.35269 23.9136C4.6605 24.7058 5.072 25.3776 5.74156 26.0469C6.41077 26.7169 7.08262 27.1293 7.87418 27.4369C8.64045 27.7347 9.5157 27.9376 10.7975 27.9964C12.0821 28.0548 12.4923 28.0691 15.7627 28.0691C19.0335 28.0691 19.4427 28.0548 20.7272 27.9964C22.0093 27.9376 22.8853 27.7347 23.6516 27.4369C24.4434 27.1293 25.1143 26.7169 25.7834 26.0469C26.4533 25.3776 26.8647 24.7058 27.1733 23.914C27.4693 23.1479 27.6726 22.2726 27.7328 20.991C27.7905 19.7065 27.8056 19.2971 27.8056 16.0264C27.8056 12.7558 27.7905 12.3454 27.7328 11.0608C27.6726 9.77876 27.4693 8.90375 27.1733 8.13809C26.8647 7.34593 26.4533 6.67407 25.7834 6.00463C25.1136 5.33482 24.4437 4.92332 23.6509 4.61612C22.8832 4.31819 22.0076 4.11515 20.7255 4.0565C19.4409 3.9981 19.032 3.98376 15.7604 3.98376H15.7641ZM14.6838 6.15395C15.0045 6.15347 15.3622 6.15395 15.7641 6.15395C18.9796 6.15395 19.3606 6.16551 20.6304 6.2232C21.8045 6.27691 22.4418 6.47308 22.8663 6.63794C23.4283 6.85616 23.829 7.11712 24.2503 7.53873C24.6717 7.96022 24.9326 8.3616 25.1514 8.92362C25.3163 9.34752 25.5127 9.98481 25.5661 11.159C25.6238 12.4285 25.6363 12.8098 25.6363 16.0237C25.6363 19.2376 25.6238 19.619 25.5661 20.8884C25.5124 22.0625 25.3163 22.6998 25.1514 23.1238C24.9332 23.6859 24.6717 24.086 24.2503 24.5073C23.8288 24.9288 23.4286 25.1896 22.8663 25.408C22.4423 25.5735 21.8045 25.7692 20.6304 25.8229C19.3609 25.8806 18.9796 25.8932 15.7641 25.8932C12.5485 25.8932 12.1673 25.8806 10.8979 25.8229C9.72379 25.7688 9.0865 25.5726 8.66164 25.4077C8.09973 25.1894 7.69824 24.9285 7.27675 24.5071C6.85526 24.0856 6.59442 23.6851 6.3756 23.1229C6.21074 22.6989 6.01433 22.0616 5.96086 20.8874C5.90317 19.6179 5.89161 19.2366 5.89161 16.0207C5.89161 12.8048 5.90317 12.4255 5.96086 11.156C6.01457 9.9818 6.21074 9.34451 6.3756 8.92001C6.59393 8.35798 6.85526 7.9566 7.27687 7.53512C7.69836 7.11363 8.09973 6.85266 8.66176 6.63397C9.08626 6.46839 9.72379 6.27269 10.8979 6.21874C12.0089 6.16853 12.4394 6.15347 14.6838 6.15094V6.15395ZM22.1924 8.1535C21.3946 8.1535 20.7473 8.80019 20.7473 9.59813C20.7473 10.3959 21.3946 11.0432 22.1924 11.0432C22.9902 11.0432 23.6375 10.3959 23.6375 9.59813C23.6375 8.80031 22.9902 8.15302 22.1924 8.15302V8.1535ZM15.7641 9.84199C12.3488 9.84199 9.57977 12.6111 9.57977 16.0264C9.57977 19.4418 12.3488 22.2096 15.7641 22.2096C19.1795 22.2096 21.9476 19.4418 21.9476 16.0264C21.9476 12.6112 19.1792 9.84199 15.7639 9.84199H15.7641ZM15.7641 12.0122C17.981 12.0122 19.7784 13.8093 19.7784 16.0264C19.7784 18.2434 17.981 20.0407 15.7641 20.0407C13.5471 20.0407 11.75 18.2434 11.75 16.0264C11.75 13.8093 13.5471 12.0122 15.7641 12.0122Z" fill="white"/>
</g>
<defs>
<radialGradient id="paint0_radial_49_38" cx="0" cy="0" r="1" gradientUnits="userSpaceOnUse" gradientTransform="translate(8.53757 33.8152) rotate(-90) scale(30.5538 28.4174)">
<stop stop-color="#FFDD55"/>
<stop offset="0.1" stop-color="#FFDD55"/>
<stop offset="0.5" stop-color="#FF543E"/>
<stop offset="1" stop-color="#C837AB"/>
</radialGradient>
<radialGradient id="paint1_radial_49_38" cx="0" cy="0" r="1" gradientUnits="userSpaceOnUse" gradientTransform="translate(-4.81534 2.83258) rotate(78.681) scale(13.6577 56.2975)">
<stop stop-color="#3771C8"/>
<stop offset="0.128" stop-color="#3771C8"/>
<stop offset="1" stop-color="#6600FF" stop-opacity="0"/>
</radialGradient>
<clipPath id="clip0_49_38">
<rect width="30.8289" height="30.8289" fill="white" transform="translate(0.348633 0.611816)"/>
</clipPath>
</defs>
</svg>
