<svg width="16" height="16" viewBox="0 0 16 16" fill="none" xmlns="http://www.w3.org/2000/svg">
<path d="M10.5924 8.00006L11.8895 9.29622L14.4818 6.70389C15.1695 6.01624 15.5558 5.08358 15.5558 4.1111C15.5558 3.13861 15.1695 2.20596 14.4818 1.51831C14.1413 1.17782 13.7371 0.907724 13.2922 0.723452C12.8474 0.53918 12.3705 0.444336 11.889 0.444336C10.9165 0.444336 9.98387 0.830654 9.29622 1.51831L6.70389 4.11064L8.00006 5.40772L10.5924 2.81447C10.9363 2.47059 11.4027 2.27739 11.889 2.27739C12.3753 2.27739 12.8418 2.47059 13.1856 2.81447C13.5295 3.15836 13.7227 3.62477 13.7227 4.1111C13.7227 4.59743 13.5295 5.06384 13.1856 5.40772L10.5924 8.00006ZM8.00006 10.5933L9.29622 11.8895L6.70389 14.4818C6.01624 15.1695 5.08358 15.5558 4.1111 15.5558C3.13861 15.5558 2.20596 15.1695 1.51831 14.4818C0.830654 13.7942 0.444336 12.8615 0.444336 11.889C0.444336 10.9165 0.830654 9.98387 1.51831 9.29622L4.11064 6.70389L5.40772 8.00006L2.81447 10.5933C2.47071 10.9372 2.27763 11.4036 2.27772 11.8898C2.2778 12.376 2.47104 12.8423 2.81493 13.1861C3.15882 13.5299 3.62518 13.7229 4.11142 13.7229C4.59766 13.7228 5.06396 13.5295 5.40772 13.1856L8.00006 10.5924V10.5933Z" fill="white"/>
<path d="M10.5934 6.7039C10.7654 6.5319 10.862 6.29861 10.862 6.05536C10.862 5.81211 10.7654 5.57882 10.5934 5.40682C10.4214 5.23481 10.1881 5.13818 9.94482 5.13818C9.70157 5.13818 9.46828 5.23481 9.29628 5.40682L5.40778 9.29623C5.32023 9.38079 5.25039 9.48194 5.20235 9.59378C5.15431 9.70562 5.12902 9.8259 5.12796 9.94762C5.12691 10.0693 5.1501 10.19 5.19619 10.3027C5.24228 10.4153 5.31035 10.5177 5.39641 10.6038C5.48248 10.6898 5.58483 10.7579 5.69749 10.804C5.81014 10.8501 5.93085 10.8733 6.05256 10.8722C6.17428 10.8712 6.29456 10.8459 6.4064 10.7978C6.51823 10.7498 6.61938 10.68 6.70394 10.5924L10.5924 6.7039H10.5934Z" fill="white"/>
</svg>
