<svg width="37" height="36" viewBox="0 0 37 36" fill="none" xmlns="http://www.w3.org/2000/svg">
<g clip-path="url(#clip0_49_37)">
<circle cx="18.4999" cy="18.0264" r="15.975" fill="white"/>
<path d="M18.5 0.986328C9.08891 0.986328 1.45996 8.61528 1.45996 18.0263C1.45996 27.4374 9.08891 35.0663 18.5 35.0663C27.911 35.0663 35.54 27.4374 35.54 18.0263C35.54 8.61528 27.911 0.986328 18.5 0.986328ZM14.3287 25.0891H10.8781V13.9847H14.3287V25.0891ZM12.5821 12.6215C11.4923 12.6215 10.7876 11.8493 10.7876 10.8944C10.7876 9.9199 11.5136 9.17085 12.6265 9.17085C13.7394 9.17085 14.421 9.9199 14.4423 10.8944C14.4423 11.8493 13.7394 12.6215 12.5821 12.6215ZM26.9312 25.0891H23.4806V18.9351C23.4806 17.5027 22.9801 16.53 21.7322 16.53C20.7791 16.53 20.2128 17.1885 19.9626 17.8222C19.8703 18.0476 19.8472 18.3671 19.8472 18.6849V25.0873H16.3948V17.5258C16.3948 16.1395 16.3504 14.9804 16.3043 13.9829H19.3023L19.4602 15.5254H19.5295C19.9839 14.8012 21.0968 13.7326 22.9588 13.7326C25.229 13.7326 26.9312 15.2538 26.9312 18.5233V25.0891Z" fill="#0077B5"/>
</g>
<defs>
<clipPath id="clip0_49_37">
<rect width="35.5" height="35.5" fill="white" transform="translate(0.75 0.276367)"/>
</clipPath>
</defs>
</svg>
