<svg width="14" height="20" viewBox="0 0 14 20" fill="none" xmlns="http://www.w3.org/2000/svg">
<path d="M13.4166 7.25004C13.4166 6.40739 13.2506 5.57299 12.9281 4.79449C12.6057 4.01598 12.133 3.30861 11.5372 2.71277C10.9413 2.11693 10.234 1.64428 9.45547 1.32181C8.67696 0.999346 7.84257 0.833374 6.99992 0.833374C6.15727 0.833374 5.32287 0.999346 4.54437 1.32181C3.76586 1.64428 3.05849 2.11693 2.46265 2.71277C1.86681 3.30861 1.39416 4.01598 1.07169 4.79449C0.749224 5.57299 0.583252 6.40739 0.583252 7.25004C0.583252 8.52146 0.958169 9.70396 1.59617 10.7013H1.58884L6.99992 19.1667L12.411 10.7013H12.4046C13.0654 9.67149 13.4166 8.47362 13.4166 7.25004ZM6.99992 10C6.27057 10 5.5711 9.71031 5.05537 9.19458C4.53965 8.67886 4.24992 7.97939 4.24992 7.25004C4.24992 6.5207 4.53965 5.82122 5.05537 5.3055C5.5711 4.78977 6.27057 4.50004 6.99992 4.50004C7.72926 4.50004 8.42874 4.78977 8.94446 5.3055C9.46019 5.82122 9.74992 6.5207 9.74992 7.25004C9.74992 7.97939 9.46019 8.67886 8.94446 9.19458C8.42874 9.71031 7.72926 10 6.99992 10Z" fill="white"/>
</svg>
