<svg width="1156" height="279" viewBox="0 0 1156 279" fill="none" xmlns="http://www.w3.org/2000/svg">
<path d="M22.7358 43.0712C16.2147 43.0712 10.751 41.0577 6.34487 37.0308C2.11496 32.8287 0 27.6636 0 21.5356C0 15.4076 2.11496 10.3301 6.34487 6.3031C10.751 2.10103 16.2147 0 22.7358 0C29.2569 0 34.6324 2.10103 38.8623 6.3031C43.2685 10.3301 45.4716 15.4076 45.4716 21.5356C45.4716 27.6636 43.2685 32.8287 38.8623 37.0308C34.6324 41.0577 29.2569 43.0712 22.7358 43.0712ZM40.9773 60.4048V205.901H3.96555V60.4048H40.9773Z" fill="white"/>
<path d="M68.0277 132.628C68.0277 117.921 70.9357 104.877 76.7519 93.4961C82.7442 82.1155 90.8516 73.3612 101.074 67.2331C111.296 61.1051 122.664 58.0411 135.178 58.0411C144.695 58.0411 153.772 60.1421 162.408 64.3442C171.044 68.3712 177.917 73.7989 183.028 80.6272V11.5557H220.569V205.901H183.028V184.366C178.446 191.544 172.013 197.322 163.729 201.699C155.446 206.077 145.84 208.265 134.913 208.265C122.576 208.265 111.296 205.114 101.074 198.81C90.8516 192.507 82.7442 183.666 76.7519 172.285C70.9357 160.729 68.0277 147.51 68.0277 132.628ZM183.293 133.153C183.293 124.224 181.53 116.607 178.005 110.304C174.48 103.826 169.722 98.9238 163.729 95.5971C157.737 92.0954 151.304 90.3445 144.43 90.3445C137.557 90.3445 131.212 92.0079 125.396 95.3345C119.58 98.6611 114.821 103.564 111.12 110.042C107.595 116.345 105.833 123.874 105.833 132.628C105.833 141.382 107.595 149.086 111.12 155.739C114.821 162.217 119.58 167.207 125.396 170.709C131.388 174.211 137.733 175.962 144.43 175.962C151.304 175.962 157.737 174.298 163.729 170.972C169.722 167.47 174.48 162.568 178.005 156.265C181.53 149.786 183.293 142.083 183.293 133.153Z" fill="white"/>
<path d="M392.868 130.002C392.868 135.254 392.515 139.982 391.81 144.184H284.741C285.622 154.689 289.323 162.918 295.844 168.871C302.365 174.824 310.384 177.8 319.902 177.8C333.649 177.8 343.431 171.935 349.247 160.204H389.167C384.937 174.211 376.829 185.767 364.845 194.871C352.86 203.8 338.143 208.265 320.695 208.265C306.595 208.265 293.905 205.201 282.626 199.073C271.522 192.77 262.798 183.928 256.453 172.548C250.284 161.167 247.2 148.035 247.2 133.153C247.2 118.096 250.284 104.877 256.453 93.4961C262.622 82.1155 271.258 73.3612 282.361 67.2331C293.465 61.1051 306.243 58.0411 320.695 58.0411C334.618 58.0411 347.044 61.0176 357.971 66.9705C369.074 72.9234 377.622 81.4151 383.615 92.4456C389.783 103.301 392.868 115.82 392.868 130.002ZM354.534 119.496C354.358 110.042 350.921 102.513 344.224 96.9103C337.526 91.1324 329.331 88.2435 319.637 88.2435C310.472 88.2435 302.718 91.0449 296.373 96.6476C290.204 102.075 286.415 109.692 285.005 119.496H354.534Z" fill="white"/>
<path d="M501.044 58.3037C518.493 58.3037 532.593 63.819 543.344 74.8494C554.095 85.7048 559.47 100.937 559.47 120.547V205.901H522.458V125.537C522.458 113.981 519.55 105.139 513.734 99.0113C507.918 92.7082 499.987 89.5566 489.941 89.5566C479.719 89.5566 471.611 92.7082 465.619 99.0113C459.803 105.139 456.895 113.981 456.895 125.537V205.901H419.883V60.4048H456.895V78.5262C461.83 72.2231 468.086 67.3207 475.665 63.819C483.42 60.1421 491.88 58.3037 501.044 58.3037Z" fill="white"/>
<path d="M637.759 90.6072V160.992C637.759 165.894 638.904 169.484 641.195 171.76C643.663 173.861 647.716 174.911 653.356 174.911H670.54V205.901H647.276C616.08 205.901 600.482 190.844 600.482 160.729V90.6072H583.034V60.4048H600.482V24.4245H637.759V60.4048H670.54V90.6072H637.759Z" fill="white"/>
<path d="M715.931 43.0712C709.41 43.0712 703.947 41.0577 699.541 37.0308C695.311 32.8287 693.196 27.6636 693.196 21.5356C693.196 15.4076 695.311 10.3301 699.541 6.3031C703.947 2.10103 709.41 0 715.931 0C722.453 0 727.828 2.10103 732.058 6.3031C736.464 10.3301 738.667 15.4076 738.667 21.5356C738.667 27.6636 736.464 32.8287 732.058 37.0308C727.828 41.0577 722.453 43.0712 715.931 43.0712ZM734.173 60.4048V205.901H697.161V60.4048H734.173Z" fill="white"/>
<path d="M761.223 132.628C761.223 117.921 764.131 104.877 769.948 93.4961C775.94 82.1155 784.047 73.3612 794.27 67.2331C804.492 61.1051 815.86 58.0411 828.373 58.0411C837.891 58.0411 846.967 60.1421 855.603 64.3442C864.239 68.3712 871.113 73.7989 876.224 80.6272V11.5557H913.765V205.901H876.224V184.366C871.642 191.544 865.209 197.322 856.925 201.699C848.642 206.077 839.036 208.265 828.109 208.265C815.772 208.265 804.492 205.114 794.27 198.81C784.047 192.507 775.94 183.666 769.948 172.285C764.131 160.729 761.223 147.51 761.223 132.628ZM876.488 133.153C876.488 124.224 874.726 116.607 871.201 110.304C867.676 103.826 862.918 98.9238 856.925 95.5971C850.933 92.0954 844.5 90.3445 837.626 90.3445C830.753 90.3445 824.408 92.0079 818.591 95.3345C812.775 98.6611 808.017 103.564 804.316 110.042C800.791 116.345 799.028 123.874 799.028 132.628C799.028 141.382 800.791 149.086 804.316 155.739C808.017 162.217 812.775 167.207 818.591 170.709C824.584 174.211 830.929 175.962 837.626 175.962C844.5 175.962 850.933 174.298 856.925 170.972C862.918 167.47 867.676 162.568 871.201 156.265C874.726 149.786 876.488 142.083 876.488 133.153Z" fill="white"/>
<path d="M1090.03 60.4048L999.35 274.71H959.959L991.683 202.225L932.993 60.4048H974.499L1012.3 162.042L1050.64 60.4048H1090.03Z" fill="white"/>
<path d="M1118.55 279C1107.39 279 1098.13 275.644 1090.79 268.933C1083.74 261.929 1080.21 253.321 1080.21 243.107C1080.21 232.894 1083.74 224.431 1090.79 217.72C1098.13 210.716 1107.39 207.215 1118.55 207.215C1129.42 207.215 1138.38 210.716 1145.43 217.72C1152.48 224.431 1156 232.894 1156 243.107C1156 253.321 1152.48 261.929 1145.43 268.933C1138.38 275.644 1129.42 279 1118.55 279Z" fill="#F1304D"/>
</svg>
