<svg width="36" height="36" viewBox="0 0 36 36" fill="none" xmlns="http://www.w3.org/2000/svg">
<g clip-path="url(#clip0_49_35)">
<circle cx="18.2367" cy="18.0264" r="15.2143" fill="white"/>
<path d="M18.2368 0.276367C28.05 0.276367 35.9868 8.21315 35.9868 18.0264C35.9868 27.8396 28.05 35.7764 18.2368 35.7764C8.4236 35.7764 0.486816 27.8396 0.486816 18.0264C0.486816 8.21315 8.4236 0.276367 18.2368 0.276367ZM14.9911 27.3832C22.8518 27.3832 27.1625 20.8664 27.1625 15.2117V14.6539C27.9993 14.0453 28.7347 13.2846 29.2925 12.4224C28.5318 12.7521 27.695 12.9803 26.8329 13.1071C27.7204 12.5746 28.405 11.7378 28.7093 10.7489C27.8725 11.2307 26.9597 11.5857 25.9961 11.7885C25.21 10.9517 24.0943 10.4446 22.8772 10.4446C20.519 10.4446 18.5918 12.3717 18.5918 14.7299C18.5918 15.0596 18.6172 15.3892 18.7186 15.6935C15.1686 15.516 11.999 13.8171 9.89432 11.2307C9.53932 11.8646 9.3111 12.5999 9.3111 13.386C9.3111 14.8567 10.0718 16.1753 11.2129 16.936C10.5029 16.936 9.8436 16.7332 9.28575 16.4035V16.4542C9.28575 18.5335 10.7565 20.2578 12.709 20.6635C12.354 20.7649 11.9736 20.8157 11.5932 20.8157C11.3143 20.8157 11.0607 20.7903 10.7818 20.7396C11.3143 22.4385 12.9118 23.681 14.7629 23.7064C13.2922 24.8474 11.4411 25.5321 9.43789 25.5321C9.08289 25.5321 8.75325 25.5321 8.4236 25.4814C10.3 26.6985 12.5568 27.4085 14.9657 27.4085" fill="#1D9BF0"/>
</g>
<defs>
<clipPath id="clip0_49_35">
<rect width="35.5" height="35.5" fill="white" transform="translate(0.486816 0.276367)"/>
</clipPath>
</defs>
</svg>
