<svg width="36" height="24" viewBox="0 0 36 24" fill="none" xmlns="http://www.w3.org/2000/svg">
<g clip-path="url(#clip0_74_2)">
<path d="M35.2049 3.74333C34.9984 3.01981 34.5957 2.36019 34.0367 1.83017C33.4777 1.30015 32.782 0.918215 32.0189 0.7224C29.2253 0 17.9817 0 17.9817 0C17.9817 0 6.73765 0.0218666 3.944 0.744267C3.18089 0.940093 2.48521 1.32205 1.92623 1.85209C1.36725 2.38214 0.964464 3.04178 0.757996 3.76533C-0.0870198 8.47173 -0.414817 15.6432 0.781199 20.1613C0.987689 20.8849 1.39048 21.5445 1.94946 22.0745C2.50844 22.6045 3.20411 22.9865 3.9672 23.1823C6.76086 23.9047 18.0047 23.9047 18.0047 23.9047C18.0047 23.9047 29.2483 23.9047 32.0419 23.1823C32.805 22.9865 33.5007 22.6045 34.0597 22.0745C34.6187 21.5445 35.0215 20.8849 35.228 20.1613C36.1193 15.4483 36.3939 8.2812 35.2049 3.74333Z" fill="#FF0000"/>
<path d="M14.403 17.0747L23.7303 11.9523L14.403 6.8299V17.0747Z" fill="white"/>
</g>
<defs>
<clipPath id="clip0_74_2">
<rect width="36" height="24" fill="white"/>
</clipPath>
</defs>
</svg>
